<?xml version="1.0" encoding="utf-8"?>
<!-- Generator: Adobe Illustrator 19.0.0, SVG Export Plug-In . SVG Version: 6.00 Build 0)  -->
<svg version="1.1" id="Layer_1" xmlns="http://www.w3.org/2000/svg" xmlns:xlink="http://www.w3.org/1999/xlink" x="0px" y="0px"
	 viewBox="0 0 172.4 63" style="enable-background:new 0 0 172.4 63;" xml:space="preserve">
<style type="text/css">
	.st0{fill:#2E3192;}
	.st1{fill:#FFFFFF;}
	.st2{fill:#00AEEF;}
</style>
<rect id="XMLID_2_" x="16.3" class="st0" width="156.1" height="42"/>
<g id="XMLID_18_">
	<path id="XMLID_19_" class="st1" d="M59.3,25.4l1.8,1.8c-1.7,2-3.9,3-6.4,3c-2.5,0-4.6-0.8-6.3-2.4c-1.7-1.6-2.5-3.7-2.5-6.1
		c0-2.5,0.9-4.6,2.6-6.2s3.8-2.5,6.4-2.5c2.5,0,4.7,1,6.4,2.9l-1.8,1.9c-0.8-0.8-1.5-1.3-2.2-1.6c-0.7-0.3-1.5-0.4-2.5-0.4
		c-1.7,0-3.1,0.5-4.3,1.6c-1.1,1.1-1.7,2.5-1.7,4.2c0,1.7,0.6,3.1,1.7,4.2c1.1,1.2,2.5,1.7,4,1.7c1,0,1.8-0.2,2.5-0.5
		C57.8,26.6,58.5,26.1,59.3,25.4z"/>
	<path id="XMLID_21_" class="st1" d="M71.4,27.5c1.3,0,2.3-0.4,3.1-1.3c0.8-0.9,1.1-2.1,1.1-3.6v-9.2h2.8v9.3c0,2.4-0.6,4.2-1.9,5.5
		c-1.3,1.3-3,2-5.1,2c-2.1,0-3.8-0.7-5.1-2c-1.3-1.3-1.9-3.2-1.9-5.5v-9.3h2.8v9.2c0,1.5,0.4,2.7,1.2,3.6
		C69.1,27,70.1,27.5,71.4,27.5z"/>
	<path id="XMLID_23_" class="st1" d="M82.9,30V13.3h6.5c2.3,0,3.9,0.5,4.8,1.5c0.7,0.8,1.1,1.8,1.1,2.9c0,1.3-0.4,2.3-1.2,2.9
		c-0.3,0.2-0.7,0.4-1.2,0.7c1,0.2,1.9,0.7,2.5,1.4c0.6,0.7,0.9,1.6,0.9,2.6c0,1.3-0.5,2.4-1.4,3.3c-0.9,0.9-2.5,1.3-4.6,1.3H82.9z
		 M85.7,20.2h3.5c2,0,3.1-0.7,3.1-2.1c0-0.8-0.2-1.4-0.7-1.7c-0.5-0.4-1.3-0.5-2.3-0.5h-3.6V20.2z M85.7,27.4h4.4
		c1.1,0,1.9-0.2,2.4-0.5c0.5-0.4,0.8-1,0.8-1.8c0-1.5-1.2-2.2-3.5-2.2h-4V27.4z"/>
	<path id="XMLID_27_" class="st1" d="M99.7,13.3h2.8V30h-2.8V13.3z"/>
	<path id="XMLID_29_" class="st1" d="M119.4,25.4l1.8,1.8c-1.7,2-3.9,3-6.4,3c-2.5,0-4.6-0.8-6.3-2.4c-1.7-1.6-2.5-3.7-2.5-6.1
		c0-2.5,0.9-4.6,2.6-6.2s3.8-2.5,6.4-2.5c2.5,0,4.7,1,6.4,2.9l-1.8,1.9c-0.8-0.8-1.5-1.3-2.2-1.6s-1.5-0.4-2.5-0.4
		c-1.7,0-3.1,0.5-4.3,1.6c-1.1,1.1-1.7,2.5-1.7,4.2c0,1.7,0.6,3.1,1.7,4.2c1.1,1.2,2.5,1.7,4,1.7c1,0,1.8-0.2,2.5-0.5
		C117.8,26.6,118.6,26.1,119.4,25.4z"/>
	<path id="XMLID_31_" class="st1" d="M124.6,30V13.3h2.8v14h7.6V30H124.6z"/>
</g>
<polygon id="XMLID_3_" class="st2" points="16.3,42 0,63 0,21 16.3,0 "/>
<g id="XMLID_1_">
	<path id="XMLID_33_" class="st1" d="M146.1,17.2c0,1-0.3,1.8-1,2.5s-1.5,1-2.5,1c-1,0-1.8-0.3-2.4-1s-1-1.5-1-2.4
		c0-1,0.3-1.8,1-2.5c0.7-0.7,1.5-1,2.4-1c1,0,1.8,0.3,2.4,1C145.8,15.4,146.1,16.2,146.1,17.2z M145.7,17.2c0-0.8-0.3-1.6-0.9-2.2
		c-0.6-0.6-1.3-0.9-2.1-0.9c-0.8,0-1.6,0.3-2.2,0.9c-0.6,0.6-0.9,1.3-0.9,2.2c0,0.8,0.3,1.6,0.9,2.2c0.6,0.6,1.3,0.9,2.1,0.9
		c0.9,0,1.6-0.3,2.2-0.9C145.4,18.7,145.7,18,145.7,17.2z M143.5,17.7l1,1.4h-0.8l-0.9-1.3H142V19h-0.6v-3.7h1.4
		c0.6,0,1,0.1,1.2,0.3s0.4,0.5,0.4,0.9C144.3,17.1,144.1,17.5,143.5,17.7z M142.8,17.2c0.3,0,0.6-0.1,0.7-0.2
		c0.1-0.1,0.2-0.3,0.2-0.5c0-0.2-0.1-0.4-0.2-0.5c-0.1-0.1-0.4-0.1-0.7-0.1H142v1.3H142.8z"/>
</g>
</svg>
