<?xml version="1.0" encoding="utf-8"?>
<!-- Generator: Adobe Illustrator 19.0.0, SVG Export Plug-In . SVG Version: 6.00 Build 0)  -->
<svg version="1.1" id="Layer_1" xmlns="http://www.w3.org/2000/svg" xmlns:xlink="http://www.w3.org/1999/xlink" x="0px" y="0px"
	 viewBox="0 0 100.2 17.2" style="enable-background:new 0 0 100.2 17.2;" xml:space="preserve">
<style type="text/css">
	.st0{fill:#FFFFFF;}
</style>
<g id="XMLID_18_">
	<path id="XMLID_19_" class="st0" d="M13.4,12.4l1.8,1.8c-1.7,2-3.9,3-6.4,3s-4.6-0.8-6.3-2.4S0,11.1,0,8.7c0-2.5,0.9-4.6,2.6-6.2
		S6.4,0,9,0c2.5,0,4.7,1,6.4,2.9l-1.8,1.9c-0.8-0.8-1.5-1.3-2.2-1.6c-0.7-0.3-1.5-0.4-2.5-0.4c-1.7,0-3.1,0.5-4.3,1.6
		C3.5,5.5,2.9,6.9,2.9,8.6c0,1.7,0.6,3.1,1.7,4.2c1.1,1.2,2.5,1.7,4,1.7c1,0,1.8-0.2,2.5-0.5C11.9,13.6,12.6,13.1,13.4,12.4z"/>
	<path id="XMLID_21_" class="st0" d="M25.5,14.5c1.3,0,2.3-0.4,3.1-1.3c0.8-0.9,1.1-2.1,1.1-3.6V0.4h2.8v9.3c0,2.4-0.6,4.2-1.9,5.5
		s-3,2-5.1,2s-3.8-0.7-5.1-2c-1.3-1.3-1.9-3.2-1.9-5.5V0.4h2.8v9.2c0,1.5,0.4,2.7,1.2,3.6C23.2,14,24.2,14.5,25.5,14.5z"/>
	<path id="XMLID_23_" class="st0" d="M37,17V0.3h6.5c2.3,0,3.9,0.5,4.8,1.5c0.7,0.8,1.1,1.8,1.1,2.9C49.4,6,49,7,48.2,7.6
		C47.9,7.8,47.5,8,47,8.3c1,0.2,1.9,0.7,2.5,1.4c0.6,0.7,0.9,1.6,0.9,2.6c0,1.3-0.5,2.4-1.4,3.3c-0.9,0.9-2.5,1.3-4.6,1.3L37,17
		L37,17z M39.8,7.2h3.5c2,0,3.1-0.7,3.1-2.1c0-0.8-0.2-1.4-0.7-1.7c-0.5-0.4-1.3-0.5-2.3-0.5h-3.6V7.2z M39.8,14.4h4.4
		c1.1,0,1.9-0.2,2.4-0.5c0.5-0.4,0.8-1,0.8-1.8c0-1.5-1.2-2.2-3.5-2.2h-4v4.5H39.8z"/>
	<path id="XMLID_27_" class="st0" d="M53.8,0.3h2.8V17h-2.8V0.3z"/>
	<path id="XMLID_29_" class="st0" d="M73.5,12.4l1.8,1.8c-1.7,2-3.9,3-6.4,3s-4.6-0.8-6.3-2.4c-1.7-1.6-2.5-3.7-2.5-6.1
		c0-2.5,0.9-4.6,2.6-6.2C64.4,0.9,66.5,0,69.1,0c2.5,0,4.7,1,6.4,2.9l-1.8,1.9c-0.8-0.8-1.5-1.3-2.2-1.6S70,2.8,69,2.8
		c-1.7,0-3.1,0.5-4.3,1.6C63.6,5.5,63,6.9,63,8.6c0,1.7,0.6,3.1,1.7,4.2c1.1,1.2,2.5,1.7,4,1.7c1,0,1.8-0.2,2.5-0.5
		C71.9,13.6,72.7,13.1,73.5,12.4z"/>
	<path id="XMLID_31_" class="st0" d="M78.7,17V0.3h2.8v14h7.6V17H78.7z"/>
</g>
<g id="XMLID_1_">
	<path id="XMLID_33_" class="st0" d="M100.2,4.2c0,1-0.3,1.8-1,2.5s-1.5,1-2.5,1s-1.8-0.3-2.4-1s-1-1.5-1-2.4c0-1,0.3-1.8,1-2.5
		s1.5-1,2.4-1c1,0,1.8,0.3,2.4,1C99.9,2.4,100.2,3.2,100.2,4.2z M99.8,4.2c0-0.8-0.3-1.6-0.9-2.2c-0.6-0.6-1.3-0.9-2.1-0.9
		S95.2,1.4,94.6,2c-0.6,0.6-0.9,1.3-0.9,2.2c0,0.8,0.3,1.6,0.9,2.2c0.6,0.6,1.3,0.9,2.1,0.9c0.9,0,1.6-0.3,2.2-0.9
		C99.5,5.7,99.8,5,99.8,4.2z M97.6,4.7l1,1.4h-0.8l-0.9-1.3h-0.8V6h-0.6V2.3h1.4c0.6,0,1,0.1,1.2,0.3s0.4,0.5,0.4,0.9
		C98.4,4.1,98.2,4.5,97.6,4.7z M96.9,4.2c0.3,0,0.6-0.1,0.7-0.2c0.1-0.1,0.2-0.3,0.2-0.5S97.7,3.1,97.6,3c-0.1-0.1-0.4-0.1-0.7-0.1
		h-0.8v1.3C96.1,4.2,96.9,4.2,96.9,4.2z"/>
</g>
</svg>
